<?xml version="1.0" encoding="UTF-8"?>
<svg id="Calque_2" xmlns="http://www.w3.org/2000/svg" viewBox="0 0 765.83 508.75">
  <defs>
    <style>
      .cls-1 {
        fill: #fff;
      }
    </style>
  </defs>
  <g id="Calque_1-2" data-name="Calque_1">
    <g>
      <path class="cls-1" d="M334.99,265.19L222.19,10.83c-1.24-2.74-1.31-5.23-.19-7.47,1.12-2.24,3.3-3.36,6.54-3.36h60.88c2.49,0,4.91.81,7.28,2.43,2.36,1.62,4.17,3.55,5.42,5.79l65.74,150.15c1.24,2.24,2.86,3.36,4.85,3.36s3.61-1.12,4.86-3.36L442.93,8.22c1.24-2.24,3.05-4.17,5.42-5.79,2.36-1.62,4.79-2.43,7.28-2.43h62c2.74,0,4.73,1.06,5.98,3.17,1.24,2.12,1.37,4.17.37,6.16l-113.92,255.85c-1.25,2.24-3.05,4.17-5.42,5.79-2.37,1.62-4.8,2.43-7.28,2.43h-49.68c-2.49,0-4.92-.8-7.28-2.43-2.37-1.62-4.17-3.55-5.42-5.79Z"/>
      <path class="cls-1" d="M463.73,201.08c0-10.4,2-20.2,6-29.4s9.4-17.23,16.2-24.1c6.8-6.87,14.8-12.3,24-16.3,9.2-4,19-6,29.4-6s20.2,2,29.4,6c9.2,4,17.23,9.43,24.1,16.3,6.87,6.87,12.3,14.9,16.3,24.1s6,19,6,29.4-2,20.2-6,29.4-9.43,17.23-16.3,24.1c-6.87,6.87-14.9,12.3-24.1,16.3-9.2,4-19,6-29.4,6s-20.2-2-29.4-6c-9.2-4-17.2-9.43-24-16.3-6.8-6.87-12.2-14.9-16.2-24.1s-6-19-6-29.4ZM503.33,201.08c0,5.07.93,9.87,2.8,14.4,1.87,4.53,4.43,8.53,7.7,12,3.27,3.47,7.1,6.23,11.5,8.3,4.4,2.07,9.07,3.1,14,3.1s9.6-1.03,14-3.1c4.4-2.07,8.27-4.83,11.6-8.3,3.33-3.47,5.93-7.47,7.8-12,1.87-4.53,2.8-9.33,2.8-14.4s-.93-9.7-2.8-14.3c-1.87-4.6-4.47-8.6-7.8-12-3.33-3.4-7.2-6.13-11.6-8.2-4.4-2.07-9.07-3.1-14-3.1s-9.6,1.03-14,3.1c-4.4,2.07-8.23,4.8-11.5,8.2-3.27,3.4-5.83,7.4-7.7,12-1.87,4.6-2.8,9.37-2.8,14.3Z"/>
      <path class="cls-1" d="M663.73,198.08l-50.2-64.4c-.8-1.07-1-2.27-.6-3.6.4-1.33,1.27-2,2.6-2h38.4c1.33,0,2.73.4,4.2,1.2,1.47.8,2.6,1.73,3.4,2.8l25,36.6c.8,1.07,1.73,1.6,2.8,1.6s2-.53,2.8-1.6c4.27-6,8.5-12.17,12.7-18.5,4.2-6.33,8.3-12.43,12.3-18.3.8-1.07,1.93-1.97,3.4-2.7,1.47-.73,2.87-1.1,4.2-1.1h38.2c1.6,0,2.53.67,2.8,2,.27,1.33,0,2.54-.8,3.6l-49.8,64.4c-.8,1.07-1.2,2.33-1.2,3.8s.4,2.73,1.2,3.8l48.8,62.8c.8,1.07.97,2.3.5,3.7-.47,1.4-1.37,2.1-2.7,2.1h-38c-1.33,0-2.73-.4-4.2-1.2-1.47-.8-2.6-1.73-3.4-2.8l-24-35c-.8-1.07-1.73-1.6-2.8-1.6s-2,.53-2.8,1.6l-24,35c-.8,1.07-1.93,2-3.4,2.8-1.47.8-2.87,1.2-4.2,1.2h-38c-1.33,0-2.2-.7-2.6-2.1-.4-1.4-.2-2.63.6-3.7l48.8-62.8c.8-1.07,1.2-2.33,1.2-3.8s-.4-2.73-1.2-3.8Z"/>
      <path class="cls-1" d="M419.81,289.18v136.8c0,1.33-.47,2.47-1.4,3.4-.93.93-2.06,1.4-3.39,1.4h-29.54c-1.33,0-2.73-.4-4.19-1.2-1.46-.8-2.59-1.73-3.39-2.8l-52.09-73.4c-.8-1.07-1.63-1.5-2.5-1.3-.87.2-1.3.97-1.3,2.3v71.6c0,1.33-.47,2.47-1.41,3.4-.94.93-2.08,1.4-3.42,1.4h-29.95c-1.34,0-2.48-.47-3.42-1.4-.94-.93-1.41-2.07-1.41-3.4v-136.8c0-1.33.47-2.47,1.4-3.4.93-.93,2.07-1.4,3.4-1.4h30c1.33,0,2.73.37,4.2,1.1,1.47.73,2.6,1.63,3.4,2.7l52,73.4c.8,1.07,1.63,1.54,2.5,1.4.87-.13,1.3-.87,1.3-2.2v-71.6c0-1.33.47-2.47,1.4-3.4.93-.93,2.07-1.4,3.4-1.4h29.6c1.33,0,2.47.47,3.4,1.4.93.93,1.4,2.07,1.4,3.4Z"/>
      <path class="cls-1" d="M486.23,430.78h-30.05c-1.46,0-2.62-.47-3.48-1.4-.86-.93-1.29-2.07-1.29-3.4v-136.6c0-1.33.43-2.47,1.29-3.4.86-.93,2.02-1.4,3.48-1.4h30.05c1.32,0,2.45.47,3.38,1.4.93.93,1.39,2.07,1.39,3.4v136.6c0,1.33-.47,2.47-1.39,3.4-.93.93-2.06,1.4-3.38,1.4Z"/>
      <path class="cls-1" d="M615.61,321.18h-28c-1.33,0-2.47.47-3.4,1.4-.93.93-1.4,2.07-1.4,3.4v100c0,1.33-.43,2.47-1.3,3.4-.87.93-2.03,1.4-3.5,1.4h-30c-1.33,0-2.47-.47-3.4-1.4-.93-.93-1.4-2.07-1.4-3.4v-100c0-1.33-.43-2.47-1.3-3.4-.87-.93-2.03-1.4-3.5-1.4h-28.4c-1.33,0-2.47-.47-3.4-1.4-.93-.93-1.4-2.07-1.4-3.4v-27.2c0-1.33.47-2.47,1.4-3.4.93-.93,2.07-1.4,3.4-1.4h105.6c1.47,0,2.63.47,3.5,1.4.87.93,1.3,2.07,1.3,3.4v27.2c0,1.33-.43,2.47-1.3,3.4-.87.93-2.03,1.4-3.5,1.4Z"/>
      <path class="cls-1" d="M764.8,290.18l-50,81c-.67,1.2-1.27,2.67-1.8,4.4-.53,1.73-.8,3.27-.8,4.6v45.8c0,1.33-.47,2.47-1.39,3.4-.93.93-2.06,1.4-3.38,1.4h-30.05c-1.33,0-2.46-.47-3.38-1.4-.93-.93-1.39-2.07-1.39-3.4v-45.6c0-1.33-.23-2.9-.7-4.7-.47-1.8-1.03-3.23-1.7-4.3-8-13.73-16.17-27.2-24.5-40.4-8.33-13.2-16.63-26.8-24.9-40.8-.67-1.2-.8-2.43-.4-3.7.4-1.27,1.27-1.9,2.6-1.9h35.6c1.33,0,2.7.4,4.1,1.2,1.4.8,2.43,1.8,3.1,3l24.51,42.8c.66,1.07,1.46,1.6,2.39,1.6s1.73-.53,2.39-1.6l24.31-42.8c.67-1.2,1.7-2.2,3.1-3s2.77-1.2,4.1-1.2h36c1.33,0,2.3.47,2.9,1.4.6.93.37,2.33-.7,4.2Z"/>
      <g>
        <path class="cls-1" d="M186.21,313.32v62.55c0,11-1.77,20.1-5.31,27.29-3.54,7.2-7.93,12.84-13.17,16.93-5.24,4.09-10.84,6.98-16.79,8.68-5.95,1.69-11.33,2.54-16.15,2.54s-10.2-.85-16.15-2.54c-5.95-1.69-11.47-4.58-16.57-8.68-5.1-4.09-9.42-9.73-12.96-16.93-3.54-7.19-5.32-16.29-5.32-27.29v-171.39c0-2.82-.98-5.22-2.94-7.2-1.96-1.97-4.35-2.96-7.16-2.96H10.1c-2.8,0-5.19.99-7.15,2.96-1.96,1.98-2.95,4.38-2.95,7.2v171.39c0,20.04,3.17,38.23,9.51,54.59,6.33,16.37,15.42,30.33,27.25,41.9,11.84,11.57,26.06,20.53,42.68,26.87,16.62,6.35,35.07,9.52,55.35,9.52s38.74-3.17,55.35-9.52c16.62-6.35,30.85-15.3,42.68-26.87,11.84-11.57,20.99-25.53,27.47-41.9,6.48-16.36,9.71-34.56,9.71-54.59v-62.55M270,340.59v-36.06c0-2.82-.98-5.22-2.94-7.2-1.96-1.97-4.35-2.96-7.16-2.96h-63.58c-2.8,0-5.19.99-7.15,2.96-1.96,1.98-2.95,4.38-2.95,7.2v36.06"/>
        <circle class="cls-1" cx="228.1" cy="236.21" r="41.9"/>
      </g>
      <circle class="cls-1" cx="372.93" cy="31.45" r="31.45"/>
    </g>
    <g>
      <path class="cls-1" d="M296.84,481.77l-13.18-33.86h4.37l7.72,19.73c.24.63.47,1.23.67,1.8.21.57.41,1.23.6,1.98.19-.75.39-1.41.6-1.98.21-.57.43-1.17.67-1.8l7.68-19.73h4.11l-13.18,33.86h-.07Z"/>
      <path class="cls-1" d="M320.73,481.12c-2.11,0-4.04-.51-5.79-1.53-1.75-1.02-3.14-2.39-4.17-4.11-1.03-1.72-1.55-3.63-1.55-5.72s.52-4.02,1.55-5.73c1.03-1.71,2.42-3.08,4.17-4.1,1.75-1.02,3.68-1.53,5.79-1.53s4.07.51,5.81,1.53c1.73,1.02,3.12,2.38,4.15,4.1,1.03,1.71,1.55,3.62,1.55,5.73s-.52,3.99-1.55,5.72c-1.03,1.72-2.42,3.09-4.15,4.11-1.74,1.02-3.67,1.53-5.81,1.53ZM320.73,477.4c1.41,0,2.68-.35,3.82-1.04,1.14-.69,2.05-1.61,2.73-2.77.68-1.15,1.02-2.43,1.02-3.84s-.34-2.69-1.02-3.84c-.68-1.15-1.59-2.08-2.73-2.77-1.14-.69-2.42-1.04-3.82-1.04s-2.68.35-3.82,1.04c-1.14.69-2.05,1.61-2.73,2.77-.68,1.15-1.02,2.43-1.02,3.84s.34,2.69,1.02,3.84c.68,1.15,1.59,2.08,2.73,2.77,1.14.69,2.41,1.04,3.82,1.04Z"/>
      <path class="cls-1" d="M339.15,480.68v-18.57h-4.95v-3.28h5.06v-7.28h3.71v7.28h5.42v3.28h-5.32v18.57h-3.93Z"/>
      <path class="cls-1" d="M352.98,480.68v-21.84h3.64v4c.78-1.29,1.81-2.31,3.09-3.08s2.82-1.15,4.59-1.15l.98,3.93c-.46-.15-.99-.22-1.6-.22-2.04,0-3.68.65-4.91,1.95-1.24,1.3-1.86,3.15-1.86,5.55v10.85h-3.93Z"/>
      <path class="cls-1" d="M379.05,481.12c-2.28,0-4.33-.51-6.14-1.53-1.81-1.02-3.23-2.41-4.26-4.17-1.03-1.76-1.55-3.72-1.55-5.88s.5-3.94,1.49-5.62c.99-1.69,2.34-3.03,4.02-4.02,1.69-.99,3.55-1.49,5.59-1.49s3.86.48,5.53,1.44c1.67.96,3.01,2.25,4,3.88.99,1.63,1.49,3.47,1.49,5.53v1.6h-14.27c-.63,0-1.27-.02-1.93-.07s-1.3-.12-1.93-.22c.27,1.94,1.15,3.57,2.64,4.88,1.49,1.31,3.27,1.97,5.33,1.97,1.38,0,2.67-.31,3.86-.95,1.19-.63,2.15-1.47,2.88-2.51l1.09,4.48c-1.04.85-2.24,1.51-3.59,1.98-1.35.47-2.77.71-4.28.71ZM371,467.9c1.31-.22,2.63-.33,3.97-.33h7.25c.53,0,1.06.02,1.58.05.52.04,1.05.08,1.58.13-.34-1.7-1.19-3.1-2.55-4.2-1.36-1.1-2.9-1.66-4.62-1.66s-3.33.59-4.66,1.77c-1.34,1.18-2.18,2.59-2.55,4.24Z"/>
      <path class="cls-1" d="M405.41,491.6v-32.77h3.64v2.88c.99-.99,2.15-1.77,3.46-2.33,1.31-.56,2.72-.84,4.22-.84,2.01,0,3.84.5,5.48,1.51,1.64,1.01,2.95,2.36,3.93,4.06.98,1.7,1.47,3.58,1.47,5.64s-.49,3.94-1.47,5.64c-.98,1.7-2.29,3.05-3.93,4.06s-3.47,1.51-5.48,1.51c-1.43,0-2.78-.25-4.04-.76-1.26-.51-2.38-1.21-3.35-2.11v13.51h-3.93ZM416.22,477.4c1.38,0,2.64-.35,3.77-1.04s2.03-1.61,2.69-2.77c.67-1.15,1-2.43,1-3.84s-.33-2.69-1-3.84-1.56-2.08-2.69-2.77-2.38-1.04-3.77-1.04-2.64.35-3.77,1.04-2.03,1.61-2.69,2.77c-.67,1.15-1,2.43-1,3.84s.33,2.69,1,3.84c.67,1.15,1.56,2.08,2.69,2.77s2.38,1.04,3.77,1.04Z"/>
      <path class="cls-1" d="M442.43,480.97c-1.99,0-3.81-.5-5.46-1.51s-2.97-2.36-3.95-4.06c-.98-1.7-1.47-3.58-1.47-5.64s.49-3.94,1.47-5.64,2.3-3.05,3.95-4.06c1.65-1.01,3.47-1.51,5.46-1.51,1.51,0,2.92.28,4.24.84,1.32.56,2.47,1.34,3.44,2.33v-2.88h3.64v21.84h-3.64v-2.88c-.97.97-2.12,1.74-3.44,2.31-1.32.57-2.74.85-4.24.85ZM442.94,477.4c1.38,0,2.64-.35,3.77-1.04,1.13-.69,2.03-1.61,2.69-2.77.67-1.15,1-2.43,1-3.84s-.33-2.69-1-3.84c-.67-1.15-1.57-2.08-2.69-2.77-1.13-.69-2.38-1.04-3.77-1.04s-2.64.35-3.77,1.04c-1.13.69-2.03,1.61-2.69,2.77s-1,2.43-1,3.84.33,2.69,1,3.84c.67,1.15,1.57,2.08,2.69,2.77,1.13.69,2.38,1.04,3.77,1.04Z"/>
      <path class="cls-1" d="M460.74,480.68v-21.84h3.64v4c.78-1.29,1.81-2.31,3.09-3.08s2.82-1.15,4.59-1.15l.98,3.93c-.46-.15-.99-.22-1.6-.22-2.04,0-3.68.65-4.91,1.95-1.24,1.3-1.86,3.15-1.86,5.55v10.85h-3.93Z"/>
      <path class="cls-1" d="M479.68,480.68v-18.57h-4.95v-3.28h5.06v-7.28h3.71v7.28h5.42v3.28h-5.32v18.57h-3.93Z"/>
      <path class="cls-1" d="M502.83,481.12c-2.28,0-4.33-.51-6.14-1.53-1.81-1.02-3.23-2.41-4.26-4.17-1.03-1.76-1.55-3.72-1.55-5.88s.5-3.94,1.49-5.62c.99-1.69,2.34-3.03,4.02-4.02,1.69-.99,3.55-1.49,5.59-1.49s3.86.48,5.53,1.44c1.67.96,3.01,2.25,4,3.88.99,1.63,1.49,3.47,1.49,5.53v1.6h-14.27c-.63,0-1.27-.02-1.93-.07s-1.3-.12-1.93-.22c.27,1.94,1.15,3.57,2.64,4.88,1.49,1.31,3.27,1.97,5.33,1.97,1.38,0,2.67-.31,3.86-.95,1.19-.63,2.15-1.47,2.88-2.51l1.09,4.48c-1.04.85-2.24,1.51-3.59,1.98-1.35.47-2.77.71-4.28.71ZM494.78,467.9c1.31-.22,2.63-.33,3.97-.33h7.25c.53,0,1.06.02,1.58.05.52.04,1.05.08,1.58.13-.34-1.7-1.19-3.1-2.55-4.2-1.36-1.1-2.9-1.66-4.62-1.66s-3.33.59-4.66,1.77c-1.34,1.18-2.18,2.59-2.55,4.24Z"/>
      <path class="cls-1" d="M518.27,480.68v-21.84h3.64v3.53c.8-1.29,1.84-2.27,3.11-2.95,1.27-.68,2.65-1.02,4.13-1.02,1.55,0,2.99.38,4.31,1.15s2.4,1.87,3.22,3.31c.83,1.44,1.24,3.2,1.24,5.26v12.56h-3.93v-12.01c0-1.72-.52-3.25-1.55-4.57-1.03-1.32-2.48-1.98-4.35-1.98-1.53,0-2.89.55-4.1,1.66-1.2,1.1-1.8,2.7-1.8,4.79v12.12h-3.93Z"/>
      <path class="cls-1" d="M553.84,480.97c-1.99,0-3.81-.5-5.46-1.51-1.65-1.01-2.97-2.36-3.95-4.06-.98-1.7-1.47-3.58-1.47-5.64s.49-3.94,1.47-5.64,2.3-3.05,3.95-4.06c1.65-1.01,3.47-1.51,5.46-1.51,1.51,0,2.92.28,4.24.84,1.32.56,2.47,1.34,3.44,2.33v-2.88h3.64v21.84h-3.64v-2.88c-.97.97-2.12,1.74-3.44,2.31-1.32.57-2.74.85-4.24.85ZM554.35,477.4c1.38,0,2.64-.35,3.77-1.04,1.13-.69,2.03-1.61,2.69-2.77.67-1.15,1-2.43,1-3.84s-.33-2.69-1-3.84c-.67-1.15-1.57-2.08-2.69-2.77-1.13-.69-2.38-1.04-3.77-1.04s-2.64.35-3.77,1.04c-1.13.69-2.03,1.61-2.69,2.77s-1,2.43-1,3.84.33,2.69,1,3.84c.67,1.15,1.57,2.08,2.69,2.77,1.13.69,2.38,1.04,3.77,1.04Z"/>
      <path class="cls-1" d="M574.11,454.9c-.73,0-1.35-.26-1.86-.76s-.76-1.13-.76-1.86.26-1.38.76-1.87,1.13-.75,1.86-.75,1.38.25,1.87.75.75,1.12.75,1.87-.25,1.35-.75,1.86-1.12.76-1.87.76ZM572.15,480.68v-21.84h3.93v21.84h-3.93Z"/>
      <path class="cls-1" d="M583.07,480.68v-21.84h3.64v4c.78-1.29,1.81-2.31,3.09-3.08,1.29-.76,2.82-1.15,4.59-1.15l.98,3.93c-.46-.15-.99-.22-1.6-.22-2.04,0-3.68.65-4.91,1.95s-1.86,3.15-1.86,5.55v10.85h-3.93Z"/>
      <path class="cls-1" d="M609.14,481.12c-2.28,0-4.33-.51-6.14-1.53-1.81-1.02-3.23-2.41-4.26-4.17-1.03-1.76-1.55-3.72-1.55-5.88s.5-3.94,1.49-5.62c.99-1.69,2.34-3.03,4.02-4.02,1.69-.99,3.55-1.49,5.59-1.49s3.86.48,5.53,1.44c1.67.96,3.01,2.25,4,3.88.99,1.63,1.49,3.47,1.49,5.53v1.6h-14.27c-.63,0-1.27-.02-1.93-.07s-1.3-.12-1.93-.22c.27,1.94,1.15,3.57,2.64,4.88,1.49,1.31,3.27,1.97,5.33,1.97,1.38,0,2.67-.31,3.86-.95,1.19-.63,2.15-1.47,2.88-2.51l1.09,4.48c-1.04.85-2.24,1.51-3.59,1.98-1.35.47-2.77.71-4.28.71ZM601.09,467.9c1.31-.22,2.63-.33,3.97-.33h7.25c.53,0,1.06.02,1.58.05.52.04,1.05.08,1.58.13-.34-1.7-1.19-3.1-2.55-4.2-1.36-1.1-2.9-1.66-4.62-1.66s-3.33.59-4.66,1.77c-1.34,1.18-2.18,2.59-2.55,4.24Z"/>
      <path class="cls-1" d="M644.85,480.97c-1.99,0-3.81-.5-5.46-1.51-1.65-1.01-2.97-2.36-3.95-4.06-.98-1.7-1.47-3.58-1.47-5.64s.49-3.94,1.47-5.64c.98-1.7,2.3-3.05,3.95-4.06,1.65-1.01,3.47-1.51,5.46-1.51,1.43,0,2.78.25,4.04.76,1.26.51,2.38,1.21,3.35,2.11v-15.69h3.93v34.95h-3.64v-2.88c-.97.97-2.12,1.74-3.44,2.31-1.32.57-2.74.85-4.24.85ZM645.36,477.4c1.38,0,2.64-.35,3.77-1.04,1.13-.69,2.03-1.61,2.69-2.77.67-1.15,1-2.43,1-3.84s-.33-2.69-1-3.84c-.67-1.15-1.57-2.08-2.69-2.77-1.13-.69-2.38-1.04-3.77-1.04s-2.64.35-3.77,1.04c-1.13.69-2.03,1.61-2.69,2.77s-1,2.43-1,3.84.33,2.69,1,3.84c.67,1.15,1.57,2.08,2.69,2.77,1.13.69,2.38,1.04,3.77,1.04Z"/>
      <path class="cls-1" d="M673.57,481.12c-2.28,0-4.33-.51-6.14-1.53-1.81-1.02-3.23-2.41-4.26-4.17-1.03-1.76-1.55-3.72-1.55-5.88s.5-3.94,1.49-5.62c.99-1.69,2.34-3.03,4.02-4.02,1.69-.99,3.55-1.49,5.59-1.49s3.86.48,5.53,1.44c1.67.96,3.01,2.25,4,3.88.99,1.63,1.49,3.47,1.49,5.53v1.6h-14.27c-.63,0-1.27-.02-1.93-.07s-1.3-.12-1.93-.22c.27,1.94,1.15,3.57,2.64,4.88,1.49,1.31,3.27,1.97,5.33,1.97,1.38,0,2.67-.31,3.86-.95,1.19-.63,2.15-1.47,2.88-2.51l1.09,4.48c-1.04.85-2.24,1.51-3.59,1.98-1.35.47-2.77.71-4.28.71ZM665.53,467.9c1.31-.22,2.63-.33,3.97-.33h7.25c.53,0,1.06.02,1.58.05.52.04,1.05.08,1.58.13-.34-1.7-1.19-3.1-2.55-4.2-1.36-1.1-2.9-1.66-4.62-1.66s-3.33.59-4.66,1.77c-1.34,1.18-2.18,2.59-2.55,4.24Z"/>
      <path class="cls-1" d="M694.65,481.12c-1.12,0-2.31-.21-3.59-.64-1.27-.42-2.37-1.13-3.3-2.13l1.09-4.3c.68,1.14,1.55,2.04,2.62,2.71,1.07.67,2.21,1,3.42,1s2.04-.28,2.62-.86c.58-.57.87-1.27.87-2.09,0-.95-.31-1.64-.93-2.08s-1.17-.74-1.66-.91l-2.95-1.13c-.53-.22-1.18-.54-1.93-.96s-1.41-1.04-1.97-1.84-.84-1.84-.84-3.13c0-1.17.28-2.23.84-3.2.56-.97,1.35-1.74,2.37-2.31,1.02-.57,2.22-.86,3.6-.86,1.09,0,2.23.19,3.42.58,1.19.39,2.2,1.04,3.02,1.97l-1.09,4.3c-.58-1.07-1.37-1.92-2.37-2.55s-2.03-.95-3.09-.95c-1,0-1.78.28-2.35.84-.57.56-.86,1.2-.86,1.93,0,.58.19,1.1.58,1.57.39.46.97.84,1.75,1.13l2.95,1.13c.53.19,1.19.51,1.98.95.79.44,1.49,1.07,2.09,1.89s.91,1.94.91,3.35c0,1.97-.69,3.56-2.06,4.77-1.37,1.21-3.1,1.82-5.19,1.82Z"/>
      <path class="cls-1" d="M709.54,454.9c-.73,0-1.35-.26-1.86-.76s-.76-1.13-.76-1.86.26-1.38.76-1.87,1.13-.75,1.86-.75,1.38.25,1.87.75.75,1.12.75,1.87-.25,1.35-.75,1.86-1.12.76-1.87.76ZM707.58,480.68v-21.84h3.93v21.84h-3.93Z"/>
      <path class="cls-1" d="M727.35,492.04c-1.67,0-3.2-.24-4.57-.73-1.37-.49-2.59-1.15-3.66-2l1.09-4.44c.73,1.04,1.7,1.89,2.91,2.55,1.21.66,2.61.98,4.19.98,2.45,0,4.44-.74,5.95-2.22,1.52-1.48,2.28-3.39,2.28-5.72v-2.66c-.97.97-2.12,1.74-3.44,2.31-1.32.57-2.74.85-4.24.85-1.99,0-3.81-.5-5.46-1.51-1.65-1.01-2.97-2.36-3.95-4.06-.98-1.7-1.47-3.58-1.47-5.64s.49-3.94,1.47-5.64c.98-1.7,2.3-3.05,3.95-4.06,1.65-1.01,3.47-1.51,5.46-1.51,1.51,0,2.92.28,4.24.84,1.32.56,2.47,1.34,3.44,2.33v-2.88h3.64v21.84c0,2.38-.55,4.42-1.66,6.12s-2.55,3-4.35,3.9c-1.8.9-3.74,1.35-5.83,1.35ZM728.37,477.4c1.38,0,2.64-.35,3.77-1.04,1.13-.69,2.03-1.61,2.69-2.77.67-1.15,1-2.43,1-3.84s-.33-2.69-1-3.84c-.67-1.15-1.57-2.08-2.69-2.77-1.13-.69-2.38-1.04-3.77-1.04s-2.64.35-3.77,1.04c-1.13.69-2.03,1.61-2.69,2.77s-1,2.43-1,3.84.33,2.69,1,3.84c.67,1.15,1.57,2.08,2.69,2.77,1.13.69,2.38,1.04,3.77,1.04Z"/>
      <path class="cls-1" d="M746.17,480.68v-21.84h3.64v3.53c.8-1.29,1.84-2.27,3.11-2.95,1.27-.68,2.65-1.02,4.13-1.02,1.55,0,2.99.38,4.31,1.15,1.32.76,2.4,1.87,3.22,3.31.83,1.44,1.24,3.2,1.24,5.26v12.56h-3.93v-12.01c0-1.72-.52-3.25-1.55-4.57-1.03-1.32-2.48-1.98-4.35-1.98-1.53,0-2.89.55-4.1,1.66-1.2,1.1-1.8,2.7-1.8,4.79v12.12h-3.93Z"/>
    </g>
  </g>
</svg>