<?xml version="1.0" encoding="UTF-8"?>
<svg id="Calque_2" xmlns="http://www.w3.org/2000/svg" viewBox="0 0 1737.65 372.59">
  <defs>
    <style>
      .cls-1 {
        fill: #fff;
      }
    </style>
  </defs>
  <g id="Logo_ImaMissio">
    <g id="Calque_1-2">
      <g>
        <path class="cls-1" d="M0,367.04v-8.34l7.94-2.38c5.29-1.85,8.8-4.3,10.52-7.34,1.72-3.04,2.58-7.34,2.58-12.9v-200.49c0-5.56-.86-9.86-2.58-12.9s-5.23-5.49-10.52-7.34L0,112.97v-8.34h99.25v8.34l-7.94,2.38c-5.03,1.85-8.47,4.31-10.32,7.34-1.85,3.05-2.78,7.34-2.78,12.9v200.49c0,5.56.92,9.86,2.78,12.9,1.85,3.05,5.29,5.5,10.32,7.34l7.94,2.38v8.34H0Z"/>
        <path class="cls-1" d="M116.71,367.04v-7.94l8.73-2.38c4.23-1.32,7.01-3.24,8.34-5.76,1.32-2.51,2.12-5.89,2.38-10.12v-100.84c0-6.09-.14-13.23-.4-21.44,0-4.5-.66-8-1.98-10.52-1.33-2.51-4.24-4.3-8.73-5.36l-8.34-1.98v-7.15l64.31-23.03,4.76,4.37,2.78,26.6c9.26-8.47,19.58-15.74,30.97-21.83,11.38-6.09,23.03-9.13,34.94-9.13,13.23,0,23.55,2.65,30.97,7.94,7.41,5.3,13.1,13.37,17.07,24.22,10.06-10.06,21.17-17.93,33.35-23.62,12.17-5.69,24.22-8.54,36.13-8.54,18,0,31.49,4.5,40.49,13.5,8.99,9,13.5,23.16,13.5,42.48v114.73c0,8.47,3.7,13.77,11.12,15.88l7.54,1.98v7.94h-89.32v-7.94l7.15-1.98c7.15-2.38,10.72-7.8,10.72-16.28v-116.32c0-11.38-2.05-19.12-6.15-23.22-4.11-4.1-10.79-6.15-20.05-6.15-7.15,0-13.9,1.46-20.25,4.37-6.35,2.92-13.37,7.41-21.04,13.5,1.59,7.94,2.38,17.07,2.38,27.39v100.84c.26,4.5,1.12,8.01,2.58,10.52,1.45,2.52,4.3,4.31,8.54,5.36l6.75,1.98v7.94h-89.72v-7.94l8.34-2.38c4.23-1.32,7.08-3.24,8.54-5.76,1.45-2.51,2.18-5.89,2.18-10.12v-115.92c0-10.85-1.99-18.52-5.96-23.03-3.97-4.5-10.72-6.75-20.25-6.75-12.18,0-25.28,5.82-39.3,17.47v128.63c0,8.73,3.7,14.03,11.12,15.88l6.75,1.98v7.94h-90.94Z"/>
        <path class="cls-1" d="M516.49,372.59c-15.09,0-27.86-4.3-38.31-12.9-10.46-8.6-15.68-20.97-15.68-37.12,0-12.7,6.15-24.42,18.46-35.13,12.31-10.72,31.69-18.59,58.16-23.62,4.5-1.05,9.73-2.05,15.68-2.98,5.96-.92,11.84-1.92,17.67-2.98v-28.19c0-18-2.25-30.43-6.75-37.32-4.5-6.88-11.65-10.32-21.44-10.32h-1.19c-6.09,0-10.92,1.92-14.49,5.76s-5.89,10.12-6.95,18.86l-1.19,5.16c-.79,10.59-3.57,18.33-8.34,23.22-4.76,4.9-10.72,7.34-17.87,7.34-6.62,0-12.11-2.05-16.48-6.15-4.37-4.1-6.55-9.46-6.55-16.08,0-10.85,3.7-19.98,11.12-27.39,7.41-7.41,17.27-12.96,29.58-16.67,12.31-3.7,25.61-5.56,39.9-5.56,23.55,0,41.55,5.69,53.99,17.07,12.44,11.38,18.66,29.91,18.66,55.58v88.53c0,11.38,5.42,17.07,16.28,17.07h9.13l3.97,4.37c-4.76,6.09-10.06,10.79-15.88,14.09-5.82,3.31-13.77,4.96-23.82,4.96-11.38,0-20.45-2.72-27.2-8.14s-11.18-12.64-13.3-21.64c-8.47,9-16.81,16.28-25.01,21.83-8.21,5.56-18.92,8.34-32.16,8.34h.01ZM539.52,347.19c5.29,0,10.32-1.19,15.09-3.57s10.72-6.35,17.87-11.91v-63.52c-6.88,1.06-13.89,2.38-21.04,3.97-11.38,2.65-20.58,7.54-27.59,14.69-7.02,7.15-10.52,16.81-10.52,28.98,0,10.59,2.44,18.46,7.34,23.62,4.89,5.16,11.18,7.74,18.86,7.74h-.01Z"/>
        <path class="cls-1" d="M662.98,367.04v-8.73l7.94-2.38c5.02-1.59,8.47-4.17,10.32-7.74,1.85-3.57,2.78-8.27,2.78-14.09v-196.51c0-5.29-.66-9.59-1.99-12.9-1.33-3.31-4.63-5.89-9.92-7.74l-9.13-3.57v-8.73h75.83l74.64,194.13,70.27-194.13h77.42v8.73l-6.35,1.98c-5.03,1.59-8.47,4.04-10.32,7.34-1.85,3.31-2.78,7.61-2.78,12.9-.27,15.35-.4,30.64-.4,45.85v108.58c0,15.35.13,30.57.4,45.66,0,5.56.66,9.79,1.98,12.7,1.32,2.92,4.5,5.3,9.53,7.15l7.94,2.78v8.73h-96.47v-8.73l8.73-2.78c5.02-1.85,8.14-4.3,9.33-7.34s1.79-7.21,1.79-12.51v-86.15l.79-106.4-80.99,223.91h-22.23l-85.35-221.53,1.59,90.52v98.46c0,5.82.79,10.46,2.38,13.9s4.89,5.82,9.92,7.15l7.94,2.78v8.73h-55.58v-.02Z"/>
        <path class="cls-1" d="M979,367.04v-7.54l5.96-1.59c5.29-1.59,8.86-3.97,10.72-7.15,1.85-3.18,2.91-7.41,3.18-12.7v-95.88c0-7.01-.14-14.22-.4-21.64,0-5.29-.99-9.46-2.98-12.51-1.99-3.04-5.63-5.09-10.92-6.15l-5.56-1.19v-7.15l69.47-23.03,4.76,4.37-1.19,56.37v107.19c0,5.3.99,9.53,2.98,12.7,1.98,3.18,5.49,5.56,10.52,7.15l4.37,1.19v7.54h-90.91v.02ZM1024.65,148.69c-8.73,0-16.15-2.78-22.23-8.34-6.09-5.56-9.13-12.57-9.13-21.04s3.04-15.81,9.13-21.24c6.08-5.42,13.5-8.14,22.23-8.14s16.14,2.72,22.23,8.14c6.08,5.43,9.13,12.51,9.13,21.24s-3.05,15.48-9.13,21.04c-6.09,5.56-13.5,8.34-22.23,8.34Z"/>
        <path class="cls-1" d="M1156.05,372.59c-12.7,0-24.15-1.39-34.34-4.17s-19.92-6.68-29.18-11.71v-46.85h10.72l11.91,22.63c5.02,9.79,10.78,17.07,17.27,21.83,6.48,4.76,14.75,7.15,24.81,7.15,12.44,0,22.36-2.71,29.78-8.14,7.41-5.42,11.12-12.77,11.12-22.03,0-8.47-2.78-15.35-8.34-20.64-5.56-5.29-15.48-10.19-29.77-14.69l-17.47-5.56c-15.62-4.76-27.99-11.97-37.12-21.64-9.13-9.66-13.7-21.77-13.7-36.33,0-11.38,3.04-21.77,9.13-31.16,6.08-9.39,14.95-16.87,26.6-22.43,11.64-5.56,25.81-8.34,42.48-8.34,10.85,0,20.84,1.26,29.97,3.77,9.13,2.52,18.06,6.02,26.8,10.52l-2.38,42.48h-10.32l-12.31-22.63c-4.24-8.47-8.54-14.35-12.9-17.67-4.37-3.31-11.05-4.96-20.05-4.96-9.53,0-17.93,2.45-25.21,7.34-7.28,4.9-10.92,11.71-10.92,20.45,0,8.21,3.04,14.89,9.13,20.05s15.88,9.99,29.38,14.49l17.07,5.16c19.32,6.09,33.08,14.16,41.29,24.22,8.2,10.06,12.31,22.1,12.31,36.13,0,18.8-7.48,33.94-22.43,45.46-14.96,11.51-36.07,17.27-63.32,17.27h-.01Z"/>
        <path class="cls-1" d="M1328.75,372.59c-12.7,0-24.15-1.39-34.34-4.17s-19.92-6.68-29.18-11.71v-46.85h10.72l11.91,22.63c5.02,9.79,10.78,17.07,17.27,21.83,6.48,4.76,14.75,7.15,24.81,7.15,12.44,0,22.36-2.71,29.78-8.14,7.41-5.42,11.12-12.77,11.12-22.03,0-8.47-2.78-15.35-8.34-20.64-5.56-5.29-15.48-10.19-29.77-14.69l-17.47-5.56c-15.62-4.76-27.99-11.97-37.12-21.64-9.13-9.66-13.7-21.77-13.7-36.33,0-11.38,3.04-21.77,9.13-31.16,6.08-9.39,14.95-16.87,26.6-22.43,11.64-5.56,25.81-8.34,42.48-8.34,10.85,0,20.84,1.26,29.97,3.77,9.13,2.52,18.06,6.02,26.8,10.52l-2.38,42.48h-10.32l-12.31-22.63c-4.24-8.47-8.54-14.35-12.9-17.67-4.37-3.31-11.05-4.96-20.05-4.96-9.53,0-17.93,2.45-25.21,7.34-7.28,4.9-10.92,11.71-10.92,20.45,0,8.21,3.04,14.89,9.13,20.05s15.88,9.99,29.38,14.49l17.07,5.16c19.32,6.09,33.08,14.16,41.29,24.22,8.2,10.06,12.31,22.1,12.31,36.13,0,18.8-7.48,33.94-22.43,45.46-14.96,11.51-36.07,17.27-63.32,17.27h-.01Z"/>
        <path class="cls-1" d="M1432.36,367.04v-7.54l5.96-1.59c5.29-1.59,8.86-3.97,10.72-7.15,1.85-3.18,2.91-7.41,3.18-12.7v-95.88c0-7.01-.14-14.22-.4-21.64,0-5.29-.99-9.46-2.98-12.51-1.99-3.04-5.63-5.09-10.92-6.15l-5.56-1.19v-7.15l69.47-23.03,4.76,4.37-1.19,56.37v107.19c0,5.3.99,9.53,2.98,12.7,1.98,3.18,5.49,5.56,10.52,7.15l4.37,1.19v7.54h-90.91v.02ZM1478.02,148.69c-8.73,0-16.15-2.78-22.23-8.34-6.09-5.56-9.13-12.57-9.13-21.04s3.04-15.81,9.13-21.24c6.08-5.42,13.5-8.14,22.23-8.14s16.14,2.72,22.23,8.14c6.08,5.43,9.13,12.51,9.13,21.24s-3.05,15.48-9.13,21.04c-6.09,5.56-13.5,8.34-22.23,8.34Z"/>
        <path class="cls-1" d="M1639.99,372.59c-19.59,0-36.72-4.11-51.41-12.31-14.69-8.2-26.07-19.85-34.14-34.94-8.08-15.09-12.11-33.08-12.11-53.99s4.3-38.91,12.9-53.99c8.6-15.09,20.25-26.66,34.94-34.74,14.69-8.07,31.29-12.11,49.82-12.11s35.13,4.04,49.82,12.11c14.69,8.08,26.33,19.59,34.94,34.54,8.6,14.96,12.9,33.02,12.9,54.19s-4.04,38.97-12.11,54.19c-8.08,15.22-19.39,26.87-33.94,34.94-14.56,8.07-31.76,12.11-51.61,12.11h0ZM1639.99,361.48c9.53,0,17.27-2.58,23.22-7.74s10.25-14.22,12.9-27.19c2.64-12.96,3.97-31.1,3.97-54.39s-1.33-41.88-3.97-54.98c-2.65-13.1-6.95-22.23-12.9-27.39-5.96-5.16-13.7-7.74-23.22-7.74s-17.21,2.58-23.03,7.74c-5.82,5.16-10.12,14.29-12.9,27.39s-4.17,31.43-4.17,54.98,1.39,41.42,4.17,54.39c2.78,12.97,7.08,22.03,12.9,27.19,5.82,5.16,13.5,7.74,23.03,7.74h0Z"/>
        <g>
          <path class="cls-1" d="M796.53,187.62v-5.96l2.68-1.7c1.79-1.32,2.97-3.07,3.55-5.25.58-2.17.87-5.25.87-9.22V22.14c0-3.97-.29-7.05-.87-9.22s-1.77-3.92-3.55-5.25l-2.68-1.7V0h33.5v5.96l-2.68,1.7c-1.7,1.33-2.86,3.08-3.48,5.25-.63,2.18-.94,5.25-.94,9.22v143.34c0,3.97.31,7.05.94,9.22.62,2.18,1.79,3.93,3.48,5.25l2.68,1.7v5.96h-33.5v.02Z"/>
          <path class="cls-1" d="M867.56,72.93h-3.53l-1.01-2.68c-.78-1.79-1.82-2.97-3.11-3.55s-3.11-.87-5.46-.87h-84.77c-2.35,0-4.17.29-5.46.87-1.29.58-2.32,1.77-3.11,3.55l-1.01,2.68h-3.53v-33.5h3.53l1.01,2.68c.78,1.7,1.82,2.86,3.11,3.48,1.29.63,3.11.94,5.46.94h84.77c2.35,0,4.17-.31,5.46-.94,1.29-.62,2.32-1.79,3.11-3.48l1.01-2.68h3.53v33.5Z"/>
        </g>
      </g>
    </g>
  </g>
</svg>