<?xml version="1.0" encoding="UTF-8"?>
<svg id="Calque_2" xmlns="http://www.w3.org/2000/svg" viewBox="0 0 1202.93 1648.01">
  <defs>
    <style>
      .cls-1 {
        fill: #fff;
      }
    </style>
  </defs>
  <g id="Calque_1-2" data-name="Calque_1">
    <g>
      <path class="cls-1" d="M601.12,841.48L243.2,34.37c-3.95-8.69-4.15-16.59-.59-23.7,3.56-7.11,10.46-10.67,20.74-10.67h193.19c7.89,0,15.59,2.57,23.11,7.7,7.5,5.14,13.22,11.26,17.18,18.37l208.59,476.45c3.94,7.11,9.07,10.67,15.41,10.67s11.45-3.55,15.41-10.67L943.64,26.07c3.94-7.11,9.67-13.22,17.18-18.37,7.5-5.13,15.21-7.7,23.11-7.7h196.74c8.69,0,15,3.37,18.96,10.07,3.94,6.72,4.33,13.24,1.18,19.56l-361.48,811.85c-3.96,7.11-9.68,13.24-17.18,18.37-7.52,5.15-15.22,7.7-23.11,7.7h-157.63c-7.91,0-15.61-2.55-23.11-7.7-7.52-5.13-13.24-11.26-17.18-18.37Z"/>
      <circle class="cls-1" cx="721.5" cy="99.8" r="99.8"/>
      <path class="cls-1" d="M590.87,1027.88v198.47c0,34.91-5.6,63.79-16.85,86.61-11.25,22.83-25.18,40.75-41.8,53.72-16.62,12.99-34.39,22.16-53.28,27.53-18.88,5.37-35.96,8.05-51.24,8.05s-32.35-2.68-51.24-8.05c-18.88-5.38-36.4-14.54-52.58-27.53-16.18-12.96-29.88-30.88-41.13-53.72-11.25-22.83-16.87-51.7-16.87-86.61v-543.87c0-8.94-3.11-16.56-9.34-22.83-6.23-6.26-13.81-9.4-22.73-9.4H32.06c-8.9,0-16.47,3.15-22.7,9.4-6.23,6.28-9.36,13.89-9.36,22.83v543.87c0,63.58,10.07,121.32,30.17,173.23,20.1,51.93,48.93,96.24,86.47,132.94,37.56,36.72,82.69,65.13,135.42,85.27,52.75,20.14,111.29,30.21,175.64,30.21s122.92-10.07,175.65-30.21c52.75-20.14,97.88-48.55,135.42-85.27,37.56-36.7,66.6-81.01,87.16-132.94,20.56-51.91,30.82-109.65,30.82-173.23v-198.47M856.76,1114.4v-114.42c0-8.94-3.11-16.56-9.34-22.83-6.23-6.26-13.81-9.4-22.73-9.4h-201.77c-8.9,0-16.47,3.15-22.7,9.4-6.23,6.28-9.36,13.89-9.36,22.83v114.42"/>
    </g>
  </g>
</svg>