<?xml version="1.0" encoding="UTF-8"?>
<svg id="Calque_2" xmlns="http://www.w3.org/2000/svg" viewBox="0 0 585.1 356.22">
  <defs>
    <style>
      .cls-1 {
        fill: #fff;
      }
    </style>
  </defs>
  <g id="Picto_ImaMissio">
    <path class="cls-1" d="M98.72,356.2v-8.73l7.94-2.38c5.02-1.59,8.47-4.17,10.32-7.74,1.85-3.57,2.78-8.27,2.78-14.09V126.75c0-5.29-.66-9.59-1.99-12.9-1.33-3.31-4.63-5.89-9.92-7.74l-9.13-3.57v-8.73h75.83l74.64,194.13,70.27-194.13h77.42v8.73l-6.35,1.98c-5.03,1.59-8.47,4.04-10.32,7.34-1.85,3.31-2.78,7.61-2.78,12.9-.27,15.35-.4,30.64-.4,45.85v108.58c0,15.35.13,30.57.4,45.66,0,5.56.66,9.79,1.98,12.7,1.32,2.92,4.5,5.3,9.53,7.15l7.94,2.78v8.73h-96.47v-8.73l8.73-2.78c5.02-1.85,8.14-4.3,9.33-7.34s1.79-7.21,1.79-12.51v-86.15l.79-106.4-80.99,223.91h-22.23l-85.35-221.53,1.59,90.52v98.46c0,5.82.79,10.46,2.38,13.9s4.89,5.82,9.92,7.15l7.94,2.78v8.73h-55.58v-.02Z"/>
    <g>
      <path class="cls-1" d="M232.26,187.62v-5.96l2.68-1.7c1.79-1.32,2.97-3.07,3.55-5.25.58-2.17.87-5.25.87-9.22V22.14c0-3.97-.29-7.05-.87-9.22s-1.77-3.92-3.55-5.25l-2.68-1.7V0h33.5v5.96l-2.68,1.7c-1.7,1.33-2.86,3.08-3.48,5.25-.63,2.18-.94,5.25-.94,9.22v143.34c0,3.97.31,7.05.94,9.22.62,2.18,1.79,3.93,3.48,5.25l2.68,1.7v5.96h-33.5v.02Z"/>
      <path class="cls-1" d="M303.29,72.93h-3.53l-1.01-2.68c-.78-1.79-1.82-2.97-3.11-3.55s-3.11-.87-5.46-.87h-84.77c-2.35,0-4.17.29-5.46.87-1.29.58-2.32,1.77-3.11,3.55l-1.01,2.68h-3.53v-33.5h3.53l1.01,2.68c.78,1.7,1.82,2.86,3.11,3.48,1.29.63,3.11.94,5.46.94h84.77c2.35,0,4.17-.31,5.46-.94,1.29-.62,2.32-1.79,3.11-3.48l1.01-2.68h3.53v33.5Z"/>
    </g>
    <path class="cls-1" d="M0,356.22v-8.34l8-2.38c5.33-1.85,8.86-4.3,10.6-7.34,1.73-3.04,2.6-7.34,2.6-12.9V124.78c0-5.56-.87-9.86-2.6-12.9-1.74-3.04-5.27-5.49-10.6-7.34l-8-2.38v-8.34h100v8.34l-8,2.38c-5.07,1.85-8.54,4.3-10.4,7.34-1.87,3.05-2.8,7.34-2.8,12.9v200.48c0,5.56.93,9.86,2.8,12.9,1.86,3.05,5.33,5.5,10.4,7.34l8,2.38v8.34H0Z"/>
    <path class="cls-1" d="M336.52,356.22v-8.3l10.67-3.16c5.53-1.58,9.81-3.95,12.84-7.11,3.03-3.16,5.46-7.51,7.31-13.04l79.83-230.79h32.8l79.43,232.38c2.11,5.8,4.48,10.21,7.11,13.24,2.63,3.03,6.85,5.47,12.65,7.31l5.93,1.58v7.9h-100.38v-7.9l6.72-1.98c5.79-1.84,9.29-4.74,10.47-8.69,1.19-3.95.85-8.82-.99-14.62l-16.6-50.98h-87.34l-16.99,50.19c-1.85,5.8-2.37,10.54-1.58,14.23.79,3.69,4.08,6.59,9.88,8.69l8.69,2.77v8.3h-60.47ZM400.94,260.58h79.83l-38.73-118.95-41.1,118.95Z"/>
  </g>
</svg>