<?xml version="1.0" encoding="UTF-8"?>
<svg id="Calque_2" data-name="Calque 2" xmlns="http://www.w3.org/2000/svg" viewBox="0 0 640 671">
  <defs>
    <style>
      .cls-1 {
        fill: none;
        stroke: #fff;
        stroke-miterlimit: 10;
        stroke-width: 35px;
      }
    </style>
  </defs>
  <g id="Calque_1-2" data-name="Calque 1">
    <circle class="cls-1" cx="320" cy="32.5" r="15"/>
    <circle class="cls-1" cx="320" cy="638.5" r="15"/>
    <g>
      <path class="cls-1" d="M223.7,631.88c-30.3-7.74-58.11-19.51-83.43-35.28-25.32-15.77-46.15-35.63-62.47-59.57-.16-.24-.33-.48-.49-.72-24.05-35.67,1.98-83.75,45-83.75h56.29c18.27,0,35.54,9.17,45.06,24.76,2.47,4.04,5.32,7.83,8.55,11.35,9.13,9.96,21.51,17.64,37.15,23.04,15.63,5.4,34.38,8.09,56.25,8.09,13,0,26.15-1.59,39.43-4.77,13.28-3.18,24.42-8.57,33.42-16.19,8.99-7.61,13.49-18.06,13.49-31.34,0-17.43-7.2-29.4-21.58-35.91-14.39-6.5-31.41-11.55-51.06-15.15l-102.53-18.26c-35.7-6.36-66.28-17.08-91.74-32.17-25.46-15.08-44.9-34.8-58.32-59.15-13.43-24.35-20.13-53.55-20.13-87.58,0-40.4,11.21-74.92,33.62-103.57,22.42-28.64,52.85-50.5,91.32-65.58,19.51-7.65,40.25-13.35,62.18-17.12h-108.88c-70.32,0-127.33,57.01-127.33,127.33v350.34c0,70.32,57.01,127.33,127.33,127.33h107.35c-9.53-1.66-19.02-3.7-28.48-6.12Z"/>
      <path class="cls-1" d="M495.17,33h-104.66c23.46,4,44.79,10.18,63.98,18.58,36.66,16.05,64.82,38.33,84.47,66.83,4.48,6.5,8.47,13.21,11.97,20.15,18.09,35.87-8.04,78.22-48.21,78.22h-52.88c-20.08,0-39.03-10.52-48.6-28.17-1.72-3.16-3.68-6.09-5.89-8.78-7.75-9.4-18.2-16.4-31.34-20.96-13.15-4.57-28.99-6.85-47.53-6.85-29.89,0-50.78,5.26-62.68,15.77-11.9,10.52-17.85,21.86-17.85,34.04s4.91,23.04,14.74,31.75c9.82,8.72,27.32,15.15,52.51,19.3l89.25,14.53c41.78,6.64,76.03,18.26,102.74,34.87,26.7,16.6,46.42,37.36,59.15,62.26,12.73,24.91,19.09,53.41,19.09,85.51,0,39.02-11.28,72.99-33.83,101.91-22.56,28.92-53.2,51.41-91.94,67.45-20.27,8.39-41.98,14.57-65.13,18.58h112.66c70.32,0,127.33-57.01,127.33-127.33V160.33c0-70.32-57.01-127.33-127.33-127.33Z"/>
    </g>
  </g>
</svg>