<?xml version="1.0" encoding="UTF-8"?>
<svg id="Calque_2" data-name="Calque 2" xmlns="http://www.w3.org/2000/svg" viewBox="0 0 3734.13 671">
  <defs>
    <style>
      .cls-1 {
        fill: none;
        stroke: #fff;
        stroke-miterlimit: 10;
        stroke-width: 35px;
      }

      .cls-2 {
        fill: #fff;
        stroke-width: 0px;
      }
    </style>
  </defs>
  <g id="Calque_1-2" data-name="Calque 1">
    <circle class="cls-1" cx="320" cy="32.5" r="15"/>
    <circle class="cls-1" cx="320" cy="638.5" r="15"/>
    <g>
      <path class="cls-1" d="M223.7,631.88c-30.3-7.74-58.11-19.51-83.43-35.28-25.32-15.77-46.15-35.63-62.47-59.57-.16-.24-.33-.48-.49-.72-24.05-35.67,1.98-83.75,45-83.75h56.29c18.27,0,35.54,9.17,45.06,24.76,2.47,4.04,5.32,7.83,8.55,11.35,9.13,9.96,21.51,17.64,37.15,23.04,15.63,5.4,34.38,8.09,56.25,8.09,13,0,26.15-1.59,39.43-4.77,13.28-3.18,24.42-8.57,33.42-16.19,8.99-7.61,13.49-18.06,13.49-31.34,0-17.43-7.2-29.4-21.58-35.91-14.39-6.5-31.41-11.55-51.06-15.15l-102.53-18.26c-35.7-6.36-66.28-17.08-91.74-32.17-25.46-15.08-44.9-34.8-58.32-59.15-13.43-24.35-20.13-53.55-20.13-87.58,0-40.4,11.21-74.92,33.62-103.57,22.42-28.64,52.85-50.5,91.32-65.58,19.51-7.65,40.25-13.35,62.18-17.12h-108.88c-70.32,0-127.33,57.01-127.33,127.33v350.34c0,70.32,57.01,127.33,127.33,127.33h107.35c-9.53-1.66-19.02-3.7-28.48-6.12Z"/>
      <path class="cls-1" d="M495.17,33h-104.66c23.46,4,44.79,10.18,63.98,18.58,36.66,16.05,64.82,38.33,84.47,66.83,4.48,6.5,8.47,13.21,11.97,20.15,18.09,35.87-8.04,78.22-48.21,78.22h-52.88c-20.08,0-39.03-10.52-48.6-28.17-1.72-3.16-3.68-6.09-5.89-8.78-7.75-9.4-18.2-16.4-31.34-20.96-13.15-4.57-28.99-6.85-47.53-6.85-29.89,0-50.78,5.26-62.68,15.77-11.9,10.52-17.85,21.86-17.85,34.04s4.91,23.04,14.74,31.75c9.82,8.72,27.32,15.15,52.51,19.3l89.25,14.53c41.78,6.64,76.03,18.26,102.74,34.87,26.7,16.6,46.42,37.36,59.15,62.26,12.73,24.91,19.09,53.41,19.09,85.51,0,39.02-11.28,72.99-33.83,101.91-22.56,28.92-53.2,51.41-91.94,67.45-20.27,8.39-41.98,14.57-65.13,18.58h112.66c70.32,0,127.33-57.01,127.33-127.33V160.33c0-70.32-57.01-127.33-127.33-127.33Z"/>
    </g>
    <g>
      <path class="cls-2" d="M858.85,373.94c-16.77,0-33.16-2.1-49.15-6.29-16-4.2-30.6-10.48-43.79-18.87-13.2-8.39-24.03-18.87-32.49-31.44-8.47-12.59-13.55-27.34-15.26-44.26h69.65c2.33,10.25,6.79,18.87,13.4,25.86,6.6,6.99,15.14,12.35,25.62,16.07,10.48,3.73,22.48,5.6,35.99,5.6,10.71,0,20.88-1.55,30.51-4.66,9.63-3.1,17.47-7.84,23.53-14.2,6.06-6.37,9.08-14.37,9.08-24,0-11.49-4.19-20.14-12.58-25.97-8.39-5.83-19.8-10.44-34.24-13.86l-63.13-13.74c-17.86-3.73-33.43-9.52-46.71-17.35-13.28-7.85-23.49-18.1-30.63-30.75-7.15-12.66-10.72-28.07-10.72-46.24,0-20.97,5.78-39.05,17.35-54.28,11.57-15.22,27.33-26.91,47.29-35.06,19.95-8.15,42.36-12.23,67.2-12.23,28.11,0,51.83,4.54,71.16,13.63,19.34,9.09,34.13,21.35,44.38,36.8,10.25,15.46,15.45,32.73,15.6,51.83h-68.02c-1.24-11.8-4.81-21.23-10.72-28.3-5.9-7.06-13.47-12.2-22.71-15.38-9.24-3.18-19.77-4.78-31.56-4.78-20.35,0-35.17,4.12-44.49,12.35-9.32,8.24-13.98,17.79-13.98,28.66,0,10.25,3.53,18.52,10.6,24.81,7.07,6.29,18.44,11.06,34.13,14.32l58.47,12.57c21.74,4.2,39.37,10.83,52.88,19.92,13.51,9.09,23.37,20.08,29.58,32.96,6.21,12.9,9.32,27.34,9.32,43.33,0,20.34-5.78,38.24-17.35,53.69-11.57,15.46-27.52,27.53-47.87,36.23-20.34,8.69-43.79,13.05-70.34,13.05Z"/>
      <path class="cls-2" d="M1232.86,370.27v-141.91l-122.54-195.05h77.14l81.29,136.56,80.31-136.56h77.87l-122.78,195.28v141.68h-71.28Z"/>
      <path class="cls-2" d="M1556.86,370.27V33.31h52.72l161.12,223.01V33.31h71.28v336.96h-67.34l-152.98-231.63v231.63h-64.8Z"/>
      <path class="cls-2" d="M2010.46,370.27V33.31h233.28l-.24,58.32h-161.76v84.24h142.56v51.84h-142.56v84.24l162,.24v58.08h-233.28Z"/>
      <path class="cls-2" d="M2399.26,370.27V33.31h142.15c26.88,0,48.86,4.28,65.94,12.82,17.09,8.55,29.67,20.39,37.75,35.54,8.08,15.15,12.12,32.59,12.12,52.31,0,17.71-2.76,32.66-8.28,44.86-5.51,12.2-12.73,22.34-21.67,30.41-8.93,8.08-18.68,14.68-29.24,19.8l62.68,141.22h-79.07l-52.56-129.6h-65.02v129.6h-64.8ZM2470.54,188.83h62.78c18.34,0,32.88-4.94,43.62-14.81,10.73-9.87,16.1-22.57,16.1-38.09s-5.17-28.06-15.51-37.15c-10.35-9.09-23.44-13.64-39.27-13.64h-67.71v103.68Z"/>
      <path class="cls-2" d="M2957.1,374.97c-30.24,0-56.49-7.07-78.74-21.23-22.26-14.15-39.42-34.2-51.51-60.15-12.07-25.96-18.12-56.6-18.12-91.94s6.34-67.04,19.03-93.23c12.69-26.19,30.43-46.41,53.22-60.63,22.79-14.23,49.38-21.34,79.76-21.34,19.6,0,37.45,3.21,53.56,9.61,16.1,6.41,30.12,15.17,42.05,26.27,11.93,11.1,21.27,23.65,28.04,37.64,6.75,14,10.44,28.5,11.05,43.5h-69.39c-2.05-10.87-6.11-20.81-12.18-29.79-6.07-8.99-13.83-16.2-23.29-21.64-9.46-5.44-20.5-8.15-33.11-8.15-15.13,0-28.84,3.9-41.15,11.71-12.29,7.8-21.99,20.26-29.09,37.36-7.09,17.11-10.64,39.53-10.64,67.28,0,22.54,2.33,41.31,6.97,56.29,4.66,14.97,10.92,26.84,18.81,35.59,7.88,8.75,16.86,14.93,26.96,18.56,10.08,3.62,20.41,5.43,30.98,5.43s19.11-1.69,27.08-5.09c7.95-3.39,14.78-7.76,20.45-13.13,5.68-5.35,10.17-11.23,13.48-17.62,3.31-6.38,5.36-12.65,6.15-18.8l2.84-20.81h-73.78v-45.36l142.56.68v174.28h-45.36v-44.33c-5.62,7.67-12.57,15.29-20.85,22.87-8.28,7.59-18.53,13.84-30.76,18.76-12.23,4.92-27.24,7.39-45.01,7.39Z"/>
      <path class="cls-2" d="M3267.57,370.27V33.31h64.8v336.96h-64.8Z"/>
      <path class="cls-2" d="M3500.85,370.27V33.31h233.28l-.24,58.32h-161.76v84.24h142.56v51.84h-142.56v84.24l162,.24v58.08h-233.28Z"/>
    </g>
    <g>
      <path class="cls-2" d="M718.16,642.36v-252.53h28.86v252.53h-28.86Z"/>
      <path class="cls-2" d="M920.18,642.36v-252.53h12.03l146.7,204.15v-204.15h28.86v252.53h-10.74l-148-206.08v206.08h-28.86Z"/>
      <path class="cls-2" d="M1280.95,642.36v-252.53h12.04l146.7,204.15v-204.15h28.86v252.53h-10.7l-148.04-206.08v206.08h-28.86Z"/>
      <path class="cls-2" d="M1734.59,644.56c-21.93,0-40.92-5-56.98-14.98-16.04-9.98-28.4-24.51-37.06-43.55-8.66-19.05-12.99-42.26-12.99-69.62s4.35-50.96,13.07-70.13c8.72-19.16,21.1-33.79,37.15-43.9,16.04-10.1,34.98-15.15,56.8-15.15s40.66,5.02,56.54,15.06c15.87,10.04,28.11,24.68,36.71,43.9,8.6,19.22,12.9,42.63,12.9,70.21s-4.27,50.56-12.82,69.62c-8.54,19.05-20.75,33.57-36.62,43.55-15.87,9.98-34.78,14.98-56.71,14.98ZM1734.59,620.31c16.39,0,30.27-3.69,41.64-11.08,11.37-7.38,20-18.76,25.89-34.11,5.88-15.35,8.83-34.81,8.83-58.36s-3-43.92-9-59.39c-6-15.47-14.69-26.99-26.06-34.55-11.37-7.56-25.13-11.34-41.3-11.34s-29.99,3.78-41.47,11.34c-11.49,7.56-20.29,19.14-26.41,34.72-6.12,15.59-9.17,35.33-9.17,59.22s3.06,43.15,9.17,58.45c6.12,15.3,14.92,26.64,26.41,34.03,11.49,7.39,25.31,11.08,41.47,11.08Z"/>
      <path class="cls-2" d="M2061.9,642.36l-90.47-252.53h27.25l80.16,221.97,79.99-221.97h27.42l-90.47,252.53h-33.88Z"/>
      <path class="cls-2" d="M2312.39,642.36l91.68-252.53h31.96l91.51,252.53h-27.89l-26.1-72.15h-107.18l-26.27,72.15h-27.72ZM2374.6,541.34h90.39l-45.19-126.75-45.19,126.75Z"/>
      <path class="cls-2" d="M2738.43,642.36v-223.67h-86.58v-28.86h187.6v28.86h-72.15v223.67h-28.86Z"/>
      <path class="cls-2" d="M2983.75,642.36v-252.53h28.86v252.53h-28.86Z"/>
      <path class="cls-2" d="M3279.21,644.56c-21.93,0-40.92-5-56.98-14.98-16.04-9.98-28.4-24.51-37.06-43.55-8.66-19.05-12.99-42.26-12.99-69.62s4.35-50.96,13.07-70.13c8.72-19.16,21.1-33.79,37.15-43.9,16.04-10.1,34.98-15.15,56.8-15.15s40.66,5.02,56.54,15.06c15.87,10.04,28.11,24.68,36.71,43.9,8.6,19.22,12.9,42.63,12.9,70.21s-4.27,50.56-12.82,69.62c-8.54,19.05-20.75,33.57-36.62,43.55-15.87,9.98-34.78,14.98-56.71,14.98ZM3279.21,620.31c16.39,0,30.27-3.69,41.64-11.08,11.37-7.38,20-18.76,25.89-34.11,5.88-15.35,8.83-34.81,8.83-58.36s-3-43.92-9-59.39c-6-15.47-14.69-26.99-26.06-34.55-11.37-7.56-25.13-11.34-41.3-11.34s-29.99,3.78-41.47,11.34c-11.49,7.56-20.29,19.14-26.41,34.72-6.12,15.59-9.17,35.33-9.17,59.22s3.06,43.15,9.17,58.45c6.12,15.3,14.92,26.64,26.41,34.03,11.49,7.39,25.31,11.08,41.47,11.08Z"/>
      <path class="cls-2" d="M3539.32,642.36v-252.53h19.25l146.7,204.15v-204.15h28.86v252.53h-17.91l-148.04-206.08v206.08h-28.86Z"/>
    </g>
  </g>
</svg>